<svg xmlns="http://www.w3.org/2000/svg" viewBox="0 0 297 297" width="512" height="512"><g fill="#FFF"><path d="M232.428 62.002c2.686 0 5.3-1.089 7.191-2.981 1.903-1.892 2.982-4.516 2.982-7.191s-1.078-5.301-2.982-7.193a10.242 10.242 0 0 0-7.191-2.979c-2.676 0-5.3 1.087-7.192 2.979-1.893 1.893-2.98 4.518-2.98 7.193s1.088 5.3 2.98 7.191a10.25 10.25 0 0 0 7.192 2.981zM64.572 129.145c2.676 0 5.3-1.089 7.191-2.981a10.246 10.246 0 0 0 2.981-7.191c0-2.676-1.089-5.301-2.981-7.193a10.226 10.226 0 0 0-7.191-2.98c-2.676 0-5.3 1.088-7.192 2.98a10.25 10.25 0 0 0-2.98 7.193c0 2.675 1.088 5.3 2.98 7.191a10.253 10.253 0 0 0 7.192 2.981zM81.357 45.217c2.676 0 5.301-1.089 7.192-2.981a10.247 10.247 0 0 0 2.981-7.192c0-2.676-1.089-5.301-2.981-7.193a10.246 10.246 0 0 0-7.192-2.98 10.25 10.25 0 0 0-7.192 2.98 10.254 10.254 0 0 0-2.98 7.193c0 2.675 1.088 5.3 2.98 7.192a10.254 10.254 0 0 0 7.192 2.981zM215.643 129.145c2.685 0 5.3-1.089 7.191-2.981a10.208 10.208 0 0 0 2.981-7.191c0-2.676-1.079-5.301-2.981-7.193a10.227 10.227 0 0 0-7.191-2.98 10.25 10.25 0 0 0-7.193 2.98 10.25 10.25 0 0 0-2.98 7.193c0 2.675 1.088 5.3 2.98 7.191a10.251 10.251 0 0 0 7.193 2.981zM273.19 145.35a10.243 10.243 0 0 0-7.191-2.98c-2.676 0-5.29 1.088-7.192 2.98a10.25 10.25 0 0 0-2.98 7.192c0 2.676 1.088 5.301 2.98 7.192a10.264 10.264 0 0 0 7.192 2.981c2.676 0 5.3-1.089 7.191-2.981a10.21 10.21 0 0 0 2.982-7.192c0-2.675-1.079-5.3-2.982-7.192zM41.174 202.899c0-2.676-1.079-5.301-2.981-7.193a10.226 10.226 0 0 0-7.191-2.98c-2.676 0-5.3 1.088-7.192 2.98a10.25 10.25 0 0 0-2.98 7.193c0 2.675 1.088 5.3 2.98 7.191a10.248 10.248 0 0 0 7.192 2.981c2.686 0 5.3-1.089 7.191-2.981a10.204 10.204 0 0 0 2.981-7.191z"/><path d="M249.217 297a10.17 10.17 0 0 0 9.349-14.18L165.093 64.714a34.612 34.612 0 0 0 17.588-30.18C182.681 15.492 167.349 0 148.503 0s-34.178 15.492-34.178 34.534a34.612 34.612 0 0 0 17.588 30.18L38.44 282.819a10.17 10.17 0 0 0 .857 9.607A10.17 10.17 0 0 0 47.79 297h201.427zM106.812 174.936l66.321-39.813 12.619 29.443-102.206 64.653 23.266-54.283zm13.692-31.951l27.999-65.33 16.54 38.594-44.539 26.736zm27.999-122.638c7.627 0 13.832 6.364 13.832 14.187 0 7.824-6.205 14.189-13.832 14.189-7.627 0-13.832-6.365-13.832-14.189 0-7.823 6.205-14.187 13.832-14.187zM69.424 262.012l124.444-78.503 12.794 29.85-98.778 63.295H63.217l6.207-14.642zm76.172 14.641l69.191-44.336 19.002 44.336h-88.193z"/></g></svg>