<svg version="1" xmlns="http://www.w3.org/2000/svg" width="31.385" height="31.385" viewBox="0 0 31.385 31.385"><path fill-rule="evenodd" clip-rule="evenodd" fill="#9896AA" d="M.615 0h6.154c.34 0 .616.275.616.615V6.77c0 .34-.276.615-.616.615H.615A.615.615 0 0 1 0 6.77V.615C0 .275.275 0 .615 0zM12.923 0h6.153c.34 0 .616.275.616.615V6.77c0 .34-.275.615-.616.615h-6.153a.615.615 0 0 1-.616-.615V.615A.616.616 0 0 1 12.923 0zM25.231 0h6.154c.34 0 .615.275.615.615V6.77c0 .34-.275.615-.615.615h-6.154a.615.615 0 0 1-.616-.615V.615c0-.34.276-.615.616-.615zM.615 12.308h6.154c.34 0 .616.275.616.616v6.153c0 .34-.276.615-.616.615H.615A.615.615 0 0 1 0 19.077v-6.153c0-.341.275-.616.615-.616zM12.923 12.308h6.153c.34 0 .616.275.616.616v6.153c0 .34-.275.615-.616.615h-6.153a.615.615 0 0 1-.616-.615v-6.153a.616.616 0 0 1 .616-.616zM25.231 12.308h6.154c.34 0 .615.275.615.616v6.153c0 .34-.275.615-.615.615h-6.154a.615.615 0 0 1-.616-.615v-6.153c0-.341.276-.616.616-.616zM.615 24.615h6.154c.34 0 .616.276.616.616v6.153c0 .34-.276.615-.616.615H.615A.613.613 0 0 1 0 31.385v-6.153c0-.34.275-.617.615-.617zM12.923 24.615h6.153c.34 0 .616.276.616.616v6.153c0 .34-.275.615-.616.615h-6.153a.615.615 0 0 1-.616-.615v-6.153a.618.618 0 0 1 .616-.616zM25.231 24.615h6.154c.34 0 .615.276.615.616v6.153a.615.615 0 0 1-.615.616h-6.154a.615.615 0 0 1-.616-.615v-6.153c0-.34.276-.617.616-.617z"/></svg>