<svg xmlns="http://www.w3.org/2000/svg" viewBox="0 0 271.043 271.043" width="512" height="512"><g fill="#FFF"><path d="M82.906 96.485l86.8-45.405a24.328 24.328 0 0 1 11.233-2.768 24.208 24.208 0 0 1 21.514 13.02l18.39 35.153h13.675c12.358 0 23.103 7.045 28.427 17.329 7.544-4.63 10.328-14.367 6.164-22.328l-28.855-55.161c-3.033-5.799-8.946-9.117-15.066-9.117-2.654 0-5.346.623-7.86 1.938l-.451.235-3.782-7.232c-3.033-5.799-8.946-9.116-15.065-9.116a16.89 16.89 0 0 0-7.86 1.939L34.33 96.489c.051 0 .101-.004.153-.004h48.423z"/><path d="M180.939 63.312a9.126 9.126 0 0 0-4.279 1.059l-61.392 32.114h88.646l-14.752-28.2a9.251 9.251 0 0 0-8.223-4.973zM252.013 136.633h-.509v-8.161c0-9.383-7.605-16.987-16.987-16.987H34.483c-9.382 0-16.987 7.604-16.987 16.987v8.161h-.509C7.606 136.633 0 144.239 0 153.621v62.252c0 9.383 7.606 16.988 16.987 16.988h.509v8.161c0 9.383 7.606 16.987 16.987 16.987h200.033c9.382 0 16.987-7.604 16.987-16.987v-8.161h.509c9.382 0 16.987-7.605 16.987-16.988v-62.252c.001-9.382-7.604-16.988-16.986-16.988zm-28.098 74.602c0 13.379-10.885 24.264-24.264 24.264H69.349c-13.379 0-24.264-10.885-24.264-24.264V158.26c0-13.379 10.885-24.264 24.264-24.264h130.303c13.379 0 24.264 10.885 24.264 24.264v52.975z"/><path d="M199.651 148.996H69.349c-5.108 0-9.264 4.155-9.264 9.264v52.975c0 5.108 4.155 9.264 9.264 9.264h130.303c5.108 0 9.264-4.155 9.264-9.264V158.26c-.001-5.108-4.156-9.264-9.265-9.264zM82.25 162.997h42.5c4.143 0 7.5 3.357 7.5 7.5s-3.357 7.5-7.5 7.5h-42.5a7.499 7.499 0 0 1-7.5-7.5 7.5 7.5 0 0 1 7.5-7.5zm84 43.5h-84a7.499 7.499 0 0 1-7.5-7.5c0-4.143 3.357-7.5 7.5-7.5h84c4.143 0 7.5 3.357 7.5 7.5s-3.357 7.5-7.5 7.5z"/></g></svg>