<svg version="1" xmlns="http://www.w3.org/2000/svg" width="31.385" height="31.385" viewBox="0 0 31.385 31.385"><path fill-rule="evenodd" clip-rule="evenodd" fill="#9795A8" d="M.726.111h30.058c.332 0 .601.269.601.602v6.014a.6.6 0 0 1-.601.601H.726a.602.602 0 0 1-.601-.601V.713C.125.38.394.111.726.111zM.726 12.14h30.058c.332 0 .601.269.601.602v6.014a.6.6 0 0 1-.601.601H.726a.6.6 0 0 1-.601-.601v-6.014c0-.333.269-.602.601-.602zM.726 24.168h30.058c.332 0 .601.27.601.601v6.014a.601.601 0 0 1-.601.602H.726a.601.601 0 0 1-.601-.602v-6.014c0-.331.269-.601.601-.601z"/></svg>