<svg version="1" xmlns="http://www.w3.org/2000/svg" width="31.385" height="31.385" viewBox="0 0 31.385 31.385"><path fill-rule="evenodd" clip-rule="evenodd" fill="#9795A8" d="M.6.017h6.036c.333 0 .604.271.604.604v6.038a.605.605 0 0 1-.604.604H.6a.605.605 0 0 1-.604-.604V.621C-.004.287.267.017.6.017zM.582 12.075h6.036c.333 0 .604.27.604.604v6.038a.604.604 0 0 1-.604.604H.582a.604.604 0 0 1-.604-.604v-6.038c0-.334.27-.604.604-.604zM.582 24.15h6.036c.333 0 .604.271.604.604v6.038a.605.605 0 0 1-.604.604H.582a.605.605 0 0 1-.604-.604v-6.038c0-.333.27-.604.604-.604zM12.654 24.15h18.109c.333 0 .604.271.604.604v6.038c0 .333-.27.604-.604.604H12.654a.605.605 0 0 1-.604-.604v-6.038a.605.605 0 0 1 .604-.604zM12.654 12.075h18.109c.333 0 .604.27.604.604v6.038c0 .334-.27.604-.604.604H12.654a.604.604 0 0 1-.604-.604v-6.038a.605.605 0 0 1 .604-.604zM12.654-.001h18.109c.333 0 .604.271.604.604V6.64c0 .333-.27.604-.604.604H12.654a.605.605 0 0 1-.604-.604V.602a.605.605 0 0 1 .604-.603z"/></svg>