<svg version="1" xmlns="http://www.w3.org/2000/svg" width="400" height="400" viewBox="0 0 300.000000 300.000000"><path d="M0 150v150h300V0H0v150zM144 46v15H67v37h67v29H67v66H31V31h113v15zm77.3 50.9c18.4 4.8 34.9 17.6 42.9 33.4 2.4 4.9 6.8 18.9 6.8 21.9 0 .4-8.1.8-18 .8-16.8 0-18-.1-18-1.8 0-3.2-6-14-9.2-16.7-8.2-6.9-19.7-9.9-32.4-8.3-18.5 2.2-31.6 16.3-36 38.8-2 10-1.4 31.2 1 40 4.1 14.6 12.1 25 23.4 30.3 6.4 3 7.3 3.2 18.7 3.2 10.9 0 12.5-.2 17.6-2.6 6.9-3.2 13.2-8.8 16.5-14.6 2.7-4.4 5.4-13.1 5.4-17.1V202h-37.1l.3-13.8.3-13.7h69l.3 45.2.2 45.3h-23.6l-1.4-8.3c-.7-4.5-1.5-8.5-1.7-8.9-.2-.4-1.8.8-3.4 2.7-4.8 5.4-16.7 12.9-25 15.6-6.5 2.1-9.2 2.4-21.9 2.4-12.4 0-15.6-.3-22-2.3-10.8-3.4-19.5-8.3-27.3-15.3-14.5-13.1-23-29.5-26.2-50.9-5.1-33 3.4-63 23.4-83 11.9-11.9 26.5-19.4 43.1-21.9 9.1-1.4 25-.5 34.3 1.8z"/></svg>