<?xml version="1.0" standalone="no"?>
<!DOCTYPE svg PUBLIC "-//W3C//DTD SVG 20010904//EN"
 "http://www.w3.org/TR/2001/REC-SVG-20010904/DTD/svg10.dtd">
<svg version="1.0" xmlns="http://www.w3.org/2000/svg"
 width="300.000000pt" height="300.000000pt" viewBox="0 0 300.000000 300.000000"
 preserveAspectRatio="xMidYMid meet">
<metadata>
Created by potrace 1.11, written by Peter Selinger 2001-2013
</metadata>
<g transform="translate(0.000000,300.000000) scale(0.100000,-0.100000)"
fill="#000000" stroke="none">
<path d="M1352 2660 c-155 -41 -279 -136 -332 -253 -56 -124 -214 -672 -331
-1152 -38 -155 -39 -164 -23 -232 75 -324 570 -716 881 -698 205 12 428 157
617 400 26 33 52 66 58 74 31 38 109 179 119 214 18 69 12 114 -56 377 -36
140 -68 264 -70 275 -14 60 -149 526 -180 620 -55 165 -98 228 -206 302 -88
59 -167 82 -304 88 -78 4 -116 1 -173 -15z"/>
</g>
</svg>
